<svg viewBox="0 0 598 702" xmlns="http://www.w3.org/2000/svg">
<path opacity="0.6" d="M451.836 511.354C457.123 520.323 454.684 531.917 445.799 537.343C403.217 563.351 352.823 578.394 298.814 578.394C245.003 578.394 194.781 563.462 152.298 537.629C143.391 532.213 140.937 520.602 146.231 511.621L281.883 281.517C289.62 268.392 308.604 268.392 316.341 281.517L451.836 511.354ZM121.68 595.057C111.749 589.226 98.7754 592.12 92.9268 602.041L51.7764 671.844C43.9166 685.176 53.5285 702.001 69.0053 702.001H529.219C544.696 702.001 554.308 685.176 546.448 671.844L505.144 601.781C499.289 591.849 486.297 588.961 476.364 594.812C424.573 625.324 363.804 642.889 298.814 642.889C233.997 642.889 173.381 625.418 121.68 595.057Z" fill="currentColor"/>
<circle cx="298.814" cy="298.216" r="260.716" fill="none" stroke="currentColor" stroke-width="75"/>
</svg>
