<svg viewBox="0 0 598 702" xmlns="http://www.w3.org/2000/svg">
<path d="M451.831 511.354C457.118 520.323 454.679 531.917 445.794 537.343C403.212 563.351 352.818 578.394 298.809 578.394C244.998 578.394 194.776 563.462 152.293 537.629C143.386 532.213 140.932 520.602 146.226 511.621L281.878 281.517C289.615 268.392 308.599 268.392 316.336 281.517L451.831 511.354ZM121.675 595.057C111.744 589.226 98.7705 592.12 92.9219 602.041L51.7715 671.844C43.9117 685.176 53.5236 702.001 69.0004 702.001H529.214C544.691 702.001 554.303 685.176 546.443 671.844L505.139 601.781C499.284 591.849 486.292 588.961 476.359 594.812C424.568 625.324 363.799 642.889 298.809 642.889C233.992 642.889 173.376 625.418 121.675 595.057Z" fill="currentColor" />
<circle cx="298.809" cy="298.216" r="260.716" transform="rotate(-180 298.809 298.216)" fill="none" stroke="url(#paint0_radial_39595_10398)" stroke-width="75"/>
<defs>
<radialGradient id="paint0_radial_39595_10398" cx="0" cy="0" r="1" gradientUnits="userSpaceOnUse" gradientTransform="translate(298.809 541.56) rotate(-90) scale(541.56 1933.45)">
<stop stop-color="#FF78E6"/>
<stop offset="1" stop-color="#9542FF"/>
</radialGradient>
</defs>
</svg>
